# AST/ASF file generated using VICON BodyLanguage
# -----------------------------------------------
:version 1.10
:name VICON
:units
  mass 1.0
  length 0.45
  angle deg
:documentation
   .ast/.asf automatically generated from VICON data using
   VICON BodyBuilder and BodyLanguage model FoxedUp or BRILLIANT.MOD
:root
   order TX TY TZ RX RY RZ
   axis XYZ
   position 0 0 0  
   orientation 0 0 0 
:bonedata
  begin
     id 1 
     name lhipjoint
     direction 0.734343 -0.627749 0.258209 
     length 2.5437 
     axis 0 0 0  XYZ
  end
  begin
     id 2 
     name lfemur
     direction 0.34202 -0.939693 0  
     length 6.7391  
     axis 0 0 20  XYZ
    dof rx ry rz
    limits (-160.0 20.0)
           (-70.0 70.0)
           (-60.0 70.0)
  end
  begin
     id 3 
     name ltibia
     direction 0.34202 -0.939693 0   
     length 7.21536   
     axis 0 0 20   XYZ
    dof rx
    limits (-10.0 170.0)
  end
  begin
     id 4 
     name lfoot
     direction 0.0489572 -0.134509 0.989702   
     length 1.61313   
     axis -90 7.62852e-016 20   XYZ
    dof rx rz
    limits (-45.0 90.0)
           (-70.0 20.0)
  end
  begin
     id 5 
     name ltoes
     direction 1.53451e-011 -4.21692e-011 1   
     length 0.823104   
     axis -90 7.62852e-016 20   XYZ
    dof rx
    limits (-90.0 20.0)
  end
  begin
     id 6 
     name rhipjoint
     direction -0.746398 -0.615468 0.253157   
     length 2.59446  
     axis 0 0 0  XYZ 
  end
  begin
     id 7 
     name rfemur
     direction -0.34202 -0.939693 0   
     length 6.7075   
     axis 0 0 -20   XYZ
    dof rx ry rz
    limits (-160.0 20.0)
           (-70.0 70.0)
           (-70.0 60.0)
  end
  begin
     id 8 
     name rtibia
     direction -0.34202 -0.939693 0   
     length 7.27262   
     axis 0 0 -20   XYZ
    dof rx
    limits (-10.0 170.0)
 end
 begin
     id 9 
     name rfoot
     direction -0.0455203 -0.125066 0.991104   
     length 1.91095  
     axis -90 -7.62852e-016 -20   XYZ
    dof rx rz
    limits (-45.0 90.0)
           (-20.0 70.0)
  end
  begin
     id 10 
     name rtoes
     direction -1.53601e-011 -4.21913e-011 1   
     length 0.969037   
     axis -90 -7.62852e-016 -20   XYZ
    dof rx
    limits (-90.0 20.0)
  end
  begin
     id 11 
     name lowerback
     direction 0.0181546 0.999122 -0.0377542   
     length 1.99916   
     axis 0 0 0   XYZ
    dof rx ry rz
    limits (-20.0 45.0)
           (-30.0 30.0)
           (-30.0 30.0)
  end
  begin
     id 12 
     name upperback
     direction 0.0203486 0.99589 0.0882534   
     length 1.951   
     axis 0 0 0   XYZ
    dof rx ry rz
    limits (-20.0 45.0)
           (-30.0 30.0)
           (-30.0 30.0)
  end
  begin
     id 13 
     name thorax
     direction 0.0131685 0.994241 0.106355   
     length 1.97461   
     axis 0 0 0   XYZ
    dof rx ry rz
    limits (-20.0 45.0)
           (-30.0 30.0)
           (-30.0 30.0)
  end
  begin
     id 14 
     name lowerneck
     direction -0.0281395 0.999325 0.023617   
     length 1.7959   
     axis 0 0 0   XYZ
    dof rx ry rz
    limits (-20.0 45.0)
           (-30.0 30.0)
           (-30.0 30.0)
  end
  begin
     id 15 
     name upperneck
     direction 0.0288721 0.991984 -0.123019   
     length 1.79917   
     axis 0 0 0   XYZ
    dof rx ry rz
    limits (-20.0 45.0)
           (-30.0 30.0)
           (-30.0 30.0)
  end
  begin
     id 16
     name head
     direction 0.0133797 0.998944 -0.0439492  
     length 1.80902  
     axis 0 0 0   XYZ
    dof rx ry rz
    limits (-20.0 45.0)
           (-30.0 30.0)
           (-30.0 30.0)
  end
  begin
     id 17 
     name lclavicle
     direction 0.919195 0.377107 0.113449  
     length 3.17815  
     axis 0 0 0   XYZ
    dof ry rz
    limits (-20.0 10.0)
           (0.0 20.0)
  end
  begin
     id 18 
     name lhumerus
     direction 1 -4.48959e-011 2.13129e-027   
     length 4.84137   
     axis 180 -30 -90   XYZ
    dof rx ry rz
    limits (-60.0 90.0)
           (-90.0 90.0)
           (-90.0 90.0)
  end
  begin
     id 19
     name lradius
     direction 1 -4.48957e-011 -6.30627e-028   
     length 3.2452   
     axis 180 -30 -90   XYZ
    dof rx
    limits (-10.0 170.0)
  end
  begin
     id 20
     name lwrist
     direction 1 -4.4901e-011 9.13299e-027   
     length 1.6226   
     axis -6.84618e-015 90 90   XYZ
    dof ry
    limits (-180.0 0.0)
 end
  begin
     id 21 
     name lhand
     direction 1 -4.48816e-011 1.82293e-026   
     length 0.521221   
     axis -1.16502e-014 90 90   XYZ
    dof rx rz
    limits (-90.0 90.0)
           (-45.0 45.0)
  end
  begin
     id 22 
     name lfingers
     direction 1 -4.49108e-011 3.65687e-026   
     length 0.420221   
     axis -2.33008e-014 90 90   XYZ
    dof rx
    limits (0.0 90.0)
  end
  begin
     id 23
     name lthumb
     direction 0.707107 -6.34943e-011 0.707107   
     length 0.603356   
     axis -90 45 5.69224e-014   XYZ
    dof rx rz
    limits (-45.0 45.0)
           (-45.0 45.0)
  end
  begin
     id 24 
     name rclavicle
     direction -0.90847 0.38596 0.160368   
     length 3.12973  
     axis 0 0 0   XYZ 
    dof ry rz
    limits (-10.0 20.0)
           (-20.0 0.0)
  end
  begin
     id 25 
     name rhumerus
     direction -1 -4.48974e-011 4.47268e-028  
     length 4.72284   
     axis 180 30 90   XYZ
    dof rx ry rz
    limits (-90.0 60.0)
           (-90.0 90.0)
           (-90.0 90.0)
  end
  begin
     id 26 
     name rradius
     direction -1 -4.48969e-011 3.43203e-027   
     length 3.23459   
     axis 180 30 90   XYZ
    dof rx
    limits (-10.0 170.0)
  end
  begin
     id 27 
     name rwrist
     direction -1 -4.48969e-011 9.12911e-027   
     length 1.6173   
     axis -6.84618e-015 -90 -90   XYZ
    dof ry
    limits (-180.0 0.0)
  end
  begin
     id 28
     name rhand
     direction -1 -4.49194e-011 1.83006e-026   
     length 0.307416   
     axis -1.16502e-014 -90 -90   XYZ
    dof rx rz
    limits (-90.0 90.0)
           (-45.0 45.0)
  end
  begin
     id 29
     name rfingers
     direction -1 -4.48423e-011 3.63103e-026   
     length 0.247847   
     axis -2.33008e-014 -90 -90   XYZ
    dof rx
    limits (0.0 90.0)
  end
  begin
     id 30
     name rthumb
     direction -0.707107 -6.34802e-011 0.707107   
     length 0.35586   
     axis -90 -45 -5.69224e-014   XYZ
    dof rx rz
    limits (-45.0 45.0)
           (-45.0 45.0)
  end
:hierarchy
  begin
    root lhipjoint rhipjoint lowerback
    lhipjoint lfemur
    lfemur ltibia
    ltibia lfoot
    lfoot ltoes
    rhipjoint rfemur
    rfemur rtibia
    rtibia rfoot
    rfoot rtoes
    lowerback upperback
    upperback thorax
    thorax lowerneck lclavicle rclavicle
    lowerneck upperneck
    upperneck head
    lclavicle lhumerus
    lhumerus lradius
    lradius lwrist
    lwrist lhand lthumb
    lhand lfingers
    rclavicle rhumerus
    rhumerus rradius
    rradius rwrist
    rwrist rhand rthumb
    rhand rfingers
  end

#!OML:ASF H:\Terrain\Patient Classification 1\Animal1\Tuesday\Animal1.ASF
:FULLY-SPECIFIED
:DEGREES
135
root 12.72 16.4307 -13.3872 4.88569 -14.846 0.401643
lowerback 5.68708 -1.30026 -2.1142
upperback 6.62633 -1.85195 1.1131
thorax 3.77167 -1.06059 2.37449
lowerneck -10.0141 -3.31505 -6.4759
upperneck 0.570833 -4.03336 9.49623
head 2.12817 -1.76998 3.72527
rclavicle -8.74653e-014 1.17283e-014
rhumerus 31.0535 26.3983 3.54291
rradius 76.1133
rwrist -36.2009
rhand 0.351588 14.4125
rfingers 7.12502
rthumb 25.9271 -13.8394
lclavicle -8.74653e-014 1.17283e-014
lhumerus -26.7278 -33.9263 95.0596
lradius 43.4773
lwrist -24.519
lhand 1.865 42.6227
lfingers 7.12502
lthumb 27.3755 70.6543
rfemur -17.104 15.3354 14.2271
rtibia 23.9252
rfoot -5.42613 -21.5968
rtoes -10.0776
lfemur -10.0108 -11.5634 -11.5535
ltibia 17.3926
lfoot -12.6199 13.8675
ltoes -20.2729
136
root 12.718 16.4253 -13.3868 4.83382 -14.8587 0.329422
lowerback 5.71701 -1.30634 -2.00988
upperback 6.62292 -1.85769 1.11356
thorax 3.74771 -1.05871 2.31747
lowerneck -9.87027 -3.56922 -6.62259
upperneck 0.348736 -4.35624 9.63242
head 2.07207 -1.93437 3.77562
rclavicle -2.94698e-014 3.37934e-015
rhumerus 30.7002 24.3848 2.68078
rradius 76.1813
rwrist -35.5975
rhand 0.844718 14.2129
rfingers 7.12502
rthumb 26.3992 -13.9691
lclavicle -2.94698e-014 3.37934e-015
lhumerus -26.6003 -33.5794 94.8946
lradius 43.4006
lwrist -24.7645
lhand 1.38015 42.9904
lfingers 7.12502
lthumb 26.9116 71.0945
rfemur -17.0429 15.3472 14.3329
rtibia 23.9001
rfoot -4.8907 -21.6301
rtoes -12.0702
lfemur -9.98453 -11.5975 -11.4897
ltibia 17.4928
lfoot -12.7172 13.9561
ltoes -20.1884
137
root 12.7141 16.4206 -13.3874 4.80467 -14.8917 0.278216
lowerback 5.70788 -1.31579 -2.00272
upperback 6.6102 -1.87075 1.14426
thorax 3.74108 -1.06555 2.34544
lowerneck -9.88593 -3.7549 -6.7865
upperneck 0.350451 -4.59007 9.73794
head 2.101 -2.04812 3.82117
rclavicle 3.66261e-014 5.46658e-015
rhumerus 30.4735 22.2894 1.7986
rradius 76.1875
rwrist -35.341
rhand 1.83953 13.9796
rfingers 7.12502
rthumb 27.3511 -14.0559
lclavicle 3.66261e-014 5.46658e-015
lhumerus -26.5161 -33.1477 94.7583
lradius 43.3442
lwrist -24.9399
lhand 0.800381 42.8465
lfingers 7.12502
lthumb 26.3568 71.0349
rfemur -16.9957 15.4343 14.3964
rtibia 23.8413
rfoot -4.96884 -21.7117
rtoes -12.7942
lfemur -10.015 -11.4914 -11.4393
ltibia 17.6619
lfoot -12.8612 13.8423
ltoes -19.3643
138
root 12.7101 16.4204 -13.3865 4.88678 -14.8783 0.0859127
lowerback 5.59985 -1.34554 -1.90075
upperback 6.55902 -1.90855 1.25956
thorax 3.75037 -1.08245 2.40623
lowerneck -9.75463 -3.87012 -6.90847
upperneck 0.263291 -4.73262 9.76108
head 2.06935 -2.1234 3.84232
rclavicle 2.23136e-014 -7.25564e-015
rhumerus 30.5563 20.2781 1.122
rradius 76.012
rwrist -35.4549
rhand 2.72312 13.945
rfingers 7.12502
rthumb 28.1959 -13.9542
lclavicle 2.23136e-014 -7.25564e-015
lhumerus -26.394 -32.5399 94.6817
lradius 43.1713
lwrist -25.2291
lhand 0.0727515 42.9615
lfingers 7.12502
lthumb 25.6601 71.2523
rfemur -17.0083 15.4837 14.6048
rtibia 23.8123
rfoot -5.06964 -21.617
rtoes -12.2314
lfemur -10.1196 -11.3939 -11.2108
ltibia 17.8058
lfoot -13.0651 13.7256
ltoes -19.2847
139
root 12.7064 16.4217 -13.387 5.01169 -14.8371 0.000460123
lowerback 5.44327 -1.39056 -1.85429
upperback 6.46717 -1.96588 1.32671
thorax 3.7455 -1.10936 2.44775
lowerneck -9.52432 -3.98535 -7.07402
upperneck 0.12295 -4.87355 9.80946
head 2.00795 -2.20047 3.88035
rclavicle -8.49804e-014 2.96189e-014
rhumerus 30.8107 18.3515 0.513039
rradius 75.6636
rwrist -35.4041
rhand 3.05078 14.3698
rfingers 7.12502
rthumb 28.5091 -13.4773
lclavicle -8.49804e-014 2.96189e-014
lhumerus -26.3101 -31.8905 94.5964
lradius 42.9392
lwrist -25.5656
lhand -0.398742 43.2481
lfingers 7.12502
lthumb 25.2084 71.6032
rfemur -17.11 15.3989 14.6965
rtibia 23.8072
rfoot -5.05702 -21.6035
rtoes -12.3655
lfemur -10.3149 -11.4009 -11.073
ltibia 17.9335
lfoot -12.8668 13.7818
ltoes -20.2437
140
root 12.7031 16.4212 -13.3911 5.09256 -14.8226 0.114485
lowerback 5.29208 -1.44235 -1.98188
upperback 6.3992 -2.03498 1.31823
thorax 3.76756 -1.14816 2.50828
lowerneck -9.30353 -4.09585 -7.26114
upperneck -0.0847712 -5.00458 9.92293
head 1.93026 -2.27173 3.94306
rclavicle -6.79347e-014 1.19271e-015
rhumerus 31.1915 16.4278 -0.0976733
rradius 75.2809
rwrist -35.3471
rhand 2.98636 14.6465
rfingers 7.12502
rthumb 28.4475 -13.2109
lclavicle -6.79347e-014 1.19271e-015
lhumerus -26.1145 -30.9575 94.3333
lradius 42.9
lwrist -25.4678
lhand 0.261286 43.1595
lfingers 7.12502
lthumb 25.8406 71.4241
rfemur -17.2365 15.3141 14.5628
rtibia 23.7892
rfoot -5.17475 -21.664
rtoes -12.2464
lfemur -10.5148 -11.4002 -11.1482
ltibia 18.0575
lfoot -12.7469 13.747
ltoes -19.805
141
root 12.7028 16.4192 -13.393 5.10131 -14.8219 0.0536073
lowerback 5.24511 -1.47999 -1.88332
upperback 6.37687 -2.08216 1.32948
thorax 3.76958 -1.16755 2.46434
lowerneck -9.00142 -4.18848 -7.30614
upperneck -0.440427 -5.12074 9.97568
head 1.78931 -2.34101 3.96776
rclavicle -6.84813e-014 2.98177e-015
rhumerus 31.5243 14.5094 -0.81298
rradius 74.8998
rwrist -35.3543
rhand 3.22391 15.2679
rfingers 7.12502
rthumb 28.6745 -12.5513
lclavicle -6.84813e-014 2.98177e-015
lhumerus -25.8034 -29.8611 93.9903
lradius 42.9406
lwrist -25.1305
lhand 1.33407 43.0237
lfingers 7.12502
lthumb 26.8676 71.1345
rfemur -17.2614 15.3187 14.6281
rtibia 23.8156
rfoot -5.0191 -21.6315
rtoes -12.2546
lfemur -10.5264 -11.338 -11.0787
ltibia 18.0999
lfoot -13.0146 13.6415
ltoes -19.2735
142
root 12.7022 16.4184 -13.3923 5.10208 -14.8739 -0.0728119
lowerback 5.16596 -1.47895 -1.70405
upperback 6.39531 -2.07594 1.3311
thorax 3.82549 -1.15771 2.36283
lowerneck -8.88956 -4.31333 -7.22234
upperneck -0.636115 -5.29019 9.93974
head 1.72465 -2.43194 3.93754
rclavicle 2.88735e-014 -2.40529e-014
rhumerus 31.7485 12.5614 -1.64957
rradius 74.5546
rwrist -35.3985
rhand 3.30627 15.4477
rfingers 7.12502
rthumb 28.7532 -12.3582
lclavicle 2.88735e-014 -2.40529e-014
lhumerus -25.585 -29.0493 93.7103
lradius 42.7916
lwrist -25.3736
lhand 1.71323 43.4656
lfingers 7.12502
lthumb 27.2303 71.5201
rfemur -17.2623 15.3283 14.7677
rtibia 23.8761
rfoot -5.0314 -21.4966
rtoes -12.3483
lfemur -10.4766 -11.309 -10.9537
ltibia 18.0992
lfoot -13.0704 13.7776
ltoes -20.5956
143
root 12.699 16.4183 -13.392 5.08051 -14.959 0.0367375
lowerback 5.0501 -1.44838 -1.82093
upperback 6.42254 -2.03564 1.28754
thorax 3.91966 -1.14271 2.37886
lowerneck -9.00248 -4.46845 -7.12127
upperneck -0.647509 -5.50089 9.89272
head 1.75297 -2.53553 3.89341
rclavicle -1.17283e-014 -8.94531e-015
rhumerus 31.964 10.5891 -2.44612
rradius 74.2639
rwrist -35.5406
rhand 3.04931 14.9294
rfingers 7.12502
rthumb 28.5077 -12.918
lclavicle -1.17283e-014 -8.94531e-015
lhumerus -25.3608 -28.4821 93.4816
lradius 42.5107
lwrist -25.7818
lhand 1.62326 44.2401
lfingers 7.12502
lthumb 27.1442 72.3081
rfemur -17.2715 15.2924 14.657
rtibia 23.8858
rfoot -5.11255 -21.2494
rtoes -11.9016
lfemur -10.4758 -11.3509 -11.0707
ltibia 18.1239
lfoot -13.0973 13.9203
ltoes -20.8973
144
root 12.6961 16.4167 -13.3953 5.08605 -14.991 0.194273
lowerback 4.97852 -1.44158 -1.96355
upperback 6.39195 -2.02637 1.22063
thorax 3.93009 -1.14201 2.38775
lowerneck -9.02965 -4.60475 -7.01795
upperneck -0.681385 -5.69055 9.86637
head 1.75951 -2.63065 3.85795
rclavicle -2.06736e-014 -1.19271e-015
rhumerus 32.1992 8.70278 -3.19027
rradius 73.9238
rwrist -35.463
rhand 2.99632 15.2575
rfingers 7.12502
rthumb 28.457 -12.5983
lclavicle -2.06736e-014 -1.19271e-015
lhumerus -25.1465 -28.0244 93.2719
lradius 42.2199
lwrist -25.7346
lhand 1.29448 44.6491
lfingers 7.12502
lthumb 26.8297 72.7657
rfemur -17.3772 15.2702 14.4839
rtibia 23.9058
rfoot -4.78521 -21.2924
rtoes -12.9017
lfemur -10.5181 -11.3666 -11.2153
ltibia 18.1142
lfoot -13.3181 13.8431
ltoes -19.4867
145
root 12.6938 16.4157 -13.3983 5.13597 -14.9899 0.154441
lowerback 4.86336 -1.46282 -1.85598
upperback 6.39019 -2.04932 1.17164
thorax 3.98762 -1.14797 2.27366
lowerneck -8.93937 -4.72417 -6.91158
upperneck -0.900149 -5.85341 9.86559
head 1.69087 -2.71768 3.8355
rclavicle -9.93923e-017 -8.15017e-015
rhumerus 32.5134 6.80942 -4.08981
rradius 73.4825
rwrist -35.2651
rhand 3.16478 15.7003
rfingers 7.12502
rthumb 28.618 -12.1285
lclavicle -9.93923e-017 -8.15017e-015
lhumerus -24.9761 -27.696 93.028
lradius 41.9999
lwrist -25.3464
lhand 0.863925 44.7434
lfingers 7.12502
lthumb 26.4176 72.9226
rfemur -17.4994 15.2693 14.525
rtibia 23.9776
rfoot -4.47232 -21.6041
rtoes -14.5318
lfemur -10.5266 -11.3883 -11.1452
ltibia 18.047
lfoot -13.3753 13.7838
ltoes -18.2382
